<?xml version="1.0"?>
<svg xmlns="http://www.w3.org/2000/svg" height="512px" viewBox="0 0 413.83764 413" width="512px"><path d="m410.824219 3.34375c-1.867188-1.871094-4.402344-2.925781-7.050781-2.925781-2.644532 0-5.179688 1.054687-7.046876 2.925781l-43.203124 43.199219-19.5-19.5c-10.484376-10.511719-25.117188-15.789063-39.898438-14.398438l-69.5 6.300781c-11.625 1.089844-22.511719 6.175782-30.800781 14.398438l-179.199219 179c-19.5 19.53125-19.5 51.167969 0 70.699219l116.398438 116.402343c19.585937 19.464844 51.214843 19.464844 70.800781 0l179.101562-179.101562c8.277344-8.25 13.378907-19.15625 14.398438-30.800781l6.300781-69.5c1.34375-14.773438-3.929688-29.386719-14.398438-39.898438l-19.5-19.5 43.199219-43.199219c1.878907-1.871093 2.929688-4.421874 2.910157-7.074218-.015626-2.652344-1.101563-5.183594-3.011719-7.027344zm-222.300781 315.699219c-1.875 1.890625-4.4375 2.9375-7.097657 2.902343-2.652343-.011718-5.199219-1.050781-7.101562-2.902343l-79.199219-79.199219c-3.894531-3.894531-3.894531-10.207031 0-14.101562 3.894531-3.890626 10.207031-3.890626 14.101562 0l79.199219 79.203124c1.90625 1.839844 2.992188 4.375 3.011719 7.027344s-1.03125 5.203125-2.914062 7.070313zm35.300781-35.398438c-1.875 1.886719-4.4375 2.933594-7.097657 2.898438-2.65625-.011719-5.199218-1.050781-7.101562-2.898438l-79.199219-79.199219c-3.894531-3.894531-3.894531-10.207031 0-14.101562s10.207031-3.894531 14.097657 0l79.203124 79.199219c1.90625 1.84375 2.992188 4.378906 3.011719 7.03125.019531 2.652343-1.03125 5.199219-2.914062 7.070312zm88.800781-123.101562c-15.355469 15.386719-39.949219 16.40625-56.523438 2.34375-16.574218-14.0625-19.574218-38.496094-6.890624-56.152344 12.683593-17.652344 36.796874-22.609375 55.414062-11.390625l-15 15c-2.097656-.679688-4.292969-1.019531-6.5-1-9.355469.011719-17.640625 6.039062-20.53125 14.933594-2.890625 8.898437.273438 18.644531 7.832031 24.148437 7.5625 5.507813 17.808594 5.523438 25.390625.042969 7.578125-5.484375 10.769532-15.21875 7.910156-24.125l15-15c9.933594 16.449219 7.417969 37.542969-6.101562 51.199219zm0 0" fill="#FFFFFF"/></svg>
